<svg width="48" height="48" viewBox="0 0 48 48" fill="none" xmlns="http://www.w3.org/2000/svg">
<path d="M24 3C35.0407 3.01213 43.9879 11.9593 44 23L44 23.4C43.7801 34.3909 34.7308 43.1441 23.7387 42.9982C12.7465 42.8524 3.9326 33.8622 4.00443 22.8693C4.07625 11.8764 13.0069 3.0022 24 3ZM24 39C32.8366 39 40 31.8366 40 23C40 14.1634 32.8366 7 24 7C15.1634 7 8 14.1634 8 23C8.00992 31.8324 15.1676 38.9901 24 39ZM26.9 13L29.728 15.83L22.658 22.9L29.728 29.97L26.9 32.8L17 22.9L26.9 13Z" fill="white"/>
</svg>
