<svg width="48" height="48" viewBox="0 0 48 48" fill="none" xmlns="http://www.w3.org/2000/svg">
<path d="M24 45C12.9593 44.9879 4.01212 36.0407 4 25V24.6C4.21986 13.6091 13.2692 4.85591 24.2613 5.00176C35.2535 5.14761 44.0674 14.1378 43.9956 25.1307C43.9237 36.1236 34.9931 44.9978 24 45ZM24 9C15.1634 9 8 16.1634 8 25C8 33.8366 15.1634 41 24 41C32.8366 41 40 33.8366 40 25C39.9901 16.1676 32.8324 9.00992 24 9ZM21.1 35L18.272 32.17L25.342 25.1L18.272 18.03L21.1 15.2L31 25.1L21.1 35Z" fill="white"/>
</svg>
